<svg width="169" height="157" viewBox="0 0 169 157" fill="none" xmlns="http://www.w3.org/2000/svg">
<circle cx="76.6562" cy="83.4669" r="29.9522" stroke="black" stroke-width="39.9363"/>
<path d="M112.043 28.9687L106.395 72.3231L138.475 105.161L91.3734 99.0791L56.4254 128.032L62.0735 84.6772L29.9935 51.8389L77.0954 57.9212L112.043 28.9687Z" fill="#1E1E1E"/>
<path d="M66.9156 25.6623L96.3689 59.8603L143.859 61.4827L106.556 88.6696L104.633 132.327L75.18 98.1294L27.6901 96.507L64.9928 69.3201L66.9156 25.6623Z" fill="#1547FA"/>
<path d="M90.7064 22.8512L103.612 64.9486L146.795 83.6661L100.978 95.1071L80.9512 134.512L68.0451 92.4146L24.8631 73.6971L70.6799 62.2561L90.7064 22.8512Z" fill="#C1FF3D"/>
<circle cx="76.6562" cy="78.6745" r="49.1217" fill="#D9D9D9" stroke="black" stroke-width="1.59745"/>
<path d="M74.5505 92.144V91.8172C74.5868 88.35 74.9498 85.5908 75.6396 83.5395C76.3294 81.4883 77.3097 79.8273 78.5804 78.5566C79.8511 77.2859 81.3759 76.115 83.1549 75.044C84.2259 74.3905 85.188 73.619 86.0412 72.7295C86.8944 71.8219 87.5661 70.7781 88.0562 69.5981C88.5645 68.4182 88.8186 67.1112 88.8186 65.6771C88.8186 63.8981 88.4011 62.3551 87.5661 61.0481C86.731 59.7411 85.6146 58.7336 84.2169 58.0257C82.8191 57.3177 81.267 56.9637 79.5607 56.9637C78.0721 56.9637 76.638 57.2723 75.2584 57.8895C73.8788 58.5067 72.7261 59.4779 71.8003 60.8031C70.8745 62.1282 70.339 63.8618 70.1938 66.0039H63.332C63.4772 62.9179 64.2759 60.2766 65.7282 58.0801C67.1985 55.8836 69.1318 54.2045 71.528 53.0427C73.9423 51.8809 76.6199 51.3 79.5607 51.3C82.7556 51.3 85.5329 51.9354 87.8928 53.2061C90.2708 54.4768 92.1043 56.2195 93.3931 58.4341C94.7001 60.6488 95.3536 63.172 95.3536 66.0039C95.3536 68.0007 95.045 69.8069 94.4279 71.4225C93.8288 73.0381 92.9575 74.4813 91.8138 75.752C90.6884 77.0227 89.3269 78.1481 87.7294 79.1284C86.132 80.1268 84.8522 81.1797 83.8901 82.287C82.928 83.3762 82.2291 84.6741 81.7935 86.1808C81.3578 87.6875 81.1218 89.5663 81.0855 91.8172V92.144H74.5505ZM78.0358 108.264C76.6925 108.264 75.5398 107.783 74.5777 106.821C73.6156 105.858 73.1345 104.706 73.1345 103.362C73.1345 102.019 73.6156 100.866 74.5777 99.9044C75.5398 98.9422 76.6925 98.4612 78.0358 98.4612C79.3791 98.4612 80.5318 98.9422 81.4939 99.9044C82.456 100.866 82.9371 102.019 82.9371 103.362C82.9371 104.252 82.7102 105.069 82.2564 105.813C81.8207 106.557 81.2307 107.156 80.4864 107.61C79.7603 108.046 78.9435 108.264 78.0358 108.264Z" fill="#1547FA"/>
<path d="M68.9594 92.144V91.8172C68.9957 88.35 69.3587 85.5908 70.0485 83.5395C70.7384 81.4883 71.7186 79.8273 72.9893 78.5566C74.26 77.2859 75.7849 76.115 77.5638 75.044C78.6349 74.3905 79.597 73.619 80.4501 72.7295C81.3033 71.8219 81.975 70.7781 82.4651 69.5981C82.9734 68.4182 83.2275 67.1112 83.2275 65.6771C83.2275 63.8981 82.81 62.3551 81.975 61.0481C81.14 59.7411 80.0236 58.7336 78.6258 58.0257C77.228 57.3177 75.6759 56.9637 73.9696 56.9637C72.481 56.9637 71.047 57.2723 69.6673 57.8895C68.2877 58.5067 67.135 59.4779 66.2092 60.8031C65.2834 62.1282 64.7479 63.8618 64.6027 66.0039H57.7409C57.8861 62.9179 58.6849 60.2766 60.1371 58.0801C61.6075 55.8836 63.5407 54.2045 65.9369 53.0427C68.3513 51.8809 71.0288 51.3 73.9696 51.3C77.1645 51.3 79.9419 51.9354 82.3017 53.2061C84.6798 54.4768 86.5132 56.2195 87.8021 58.4341C89.1091 60.6488 89.7626 63.172 89.7626 66.0039C89.7626 68.0007 89.454 69.8069 88.8368 71.4225C88.2377 73.0381 87.3664 74.4813 86.2228 75.752C85.0973 77.0227 83.7358 78.1481 82.1384 79.1284C80.5409 80.1268 79.2611 81.1797 78.299 82.287C77.3369 83.3762 76.638 84.6741 76.2024 86.1808C75.7667 87.6875 75.5307 89.5663 75.4944 91.8172V92.144H68.9594ZM72.4447 108.264C71.1014 108.264 69.9487 107.783 68.9866 106.821C68.0245 105.858 67.5435 104.706 67.5435 103.362C67.5435 102.019 68.0245 100.866 68.9866 99.9044C69.9487 98.9422 71.1014 98.4612 72.4447 98.4612C73.788 98.4612 74.9407 98.9422 75.9029 99.9044C76.865 100.866 77.346 102.019 77.346 103.362C77.346 104.252 77.1191 105.069 76.6653 105.813C76.2296 106.557 75.6396 107.156 74.8954 107.61C74.1693 108.046 73.3524 108.264 72.4447 108.264Z" fill="#C1FF3D"/>
<path d="M72.1543 92.144V91.8172C72.1906 88.35 72.5536 85.5908 73.2435 83.5395C73.9333 81.4883 74.9135 79.8273 76.1842 78.5566C77.4549 77.2859 78.9798 76.115 80.7587 75.044C81.8298 74.3905 82.7919 73.619 83.645 72.7295C84.4982 71.8219 85.1699 70.7781 85.66 69.5981C86.1683 68.4182 86.4224 67.1112 86.4224 65.6771C86.4224 63.8981 86.0049 62.3551 85.1699 61.0481C84.3349 59.7411 83.2185 58.7336 81.8207 58.0257C80.4229 57.3177 78.8708 56.9637 77.1645 56.9637C75.6759 56.9637 74.2419 57.2723 72.8622 57.8895C71.4826 58.5067 70.3299 59.4779 69.4041 60.8031C68.4783 62.1282 67.9428 63.8618 67.7976 66.0039H60.9358C61.081 62.9179 61.8798 60.2766 63.332 58.0801C64.8024 55.8836 66.7357 54.2045 69.1318 53.0427C71.5462 51.8809 74.2237 51.3 77.1645 51.3C80.3594 51.3 83.1368 51.9354 85.4966 53.2061C87.8747 54.4768 89.7081 56.2195 90.997 58.4341C92.304 60.6488 92.9575 63.172 92.9575 66.0039C92.9575 68.0007 92.6489 69.8069 92.0317 71.4225C91.4326 73.0381 90.5613 74.4813 89.4177 75.752C88.2922 77.0227 86.9307 78.1481 85.3333 79.1284C83.7358 80.1268 82.456 81.1797 81.4939 82.287C80.5318 83.3762 79.8329 84.6741 79.3973 86.1808C78.9616 87.6875 78.7256 89.5663 78.6893 91.8172V92.144H72.1543ZM75.6396 108.264C74.2963 108.264 73.1436 107.783 72.1815 106.821C71.2194 105.858 70.7384 104.706 70.7384 103.362C70.7384 102.019 71.2194 100.866 72.1815 99.9044C73.1436 98.9422 74.2963 98.4612 75.6396 98.4612C76.9829 98.4612 78.1357 98.9422 79.0978 99.9044C80.0599 100.866 80.5409 102.019 80.5409 103.362C80.5409 104.252 80.314 105.069 79.8602 105.813C79.4245 106.557 78.8345 107.156 78.0903 107.61C77.3642 108.046 76.5473 108.264 75.6396 108.264Z" fill="black"/>
</svg>
