<svg width="1920" height="1080" viewBox="0 0 1920 1080" fill="none" xmlns="http://www.w3.org/2000/svg">
<rect width="1920" height="1080" fill="white"/>
<path d="M265.273 382.909H278.727L310.364 460.182H311.455L343.091 382.909H356.545V476H346V405.273H345.091L316 476H305.818L276.727 405.273H275.818V476H265.273V382.909ZM379.148 476V382.909H435.33V392.909H390.42V424.364H432.42V434.364H390.42V466H436.057V476H379.148ZM450.557 392.909V382.909H520.375V392.909H491.102V476H479.83V392.909H450.557ZM530.716 476H518.898L553.08 382.909H564.716L598.898 476H587.08L559.261 397.636H558.534L530.716 476ZM535.08 439.636H582.716V449.636H535.08V439.636ZM613.398 382.909H626.852L658.489 460.182H659.58L691.216 382.909H704.67V476H694.125V405.273H693.216L664.125 476H653.943L624.852 405.273H623.943V476H613.398V382.909ZM805.818 429.455C805.818 439.273 804.045 447.758 800.5 454.909C796.955 462.061 792.091 467.576 785.909 471.455C779.727 475.333 772.667 477.273 764.727 477.273C756.788 477.273 749.727 475.333 743.545 471.455C737.364 467.576 732.5 462.061 728.955 454.909C725.409 447.758 723.636 439.273 723.636 429.455C723.636 419.636 725.409 411.152 728.955 404C732.5 396.848 737.364 391.333 743.545 387.455C749.727 383.576 756.788 381.636 764.727 381.636C772.667 381.636 779.727 383.576 785.909 387.455C792.091 391.333 796.955 396.848 800.5 404C804.045 411.152 805.818 419.636 805.818 429.455ZM794.909 429.455C794.909 421.394 793.561 414.591 790.864 409.045C788.197 403.5 784.576 399.303 780 396.455C775.455 393.606 770.364 392.182 764.727 392.182C759.091 392.182 753.985 393.606 749.409 396.455C744.864 399.303 741.242 403.5 738.545 409.045C735.879 414.591 734.545 421.394 734.545 429.455C734.545 437.515 735.879 444.318 738.545 449.864C741.242 455.409 744.864 459.606 749.409 462.455C753.985 465.303 759.091 466.727 764.727 466.727C770.364 466.727 775.455 465.303 780 462.455C784.576 459.606 788.197 455.409 790.864 449.864C793.561 444.318 794.909 437.515 794.909 429.455ZM853.5 476H824.773V382.909H854.773C863.803 382.909 871.53 384.773 877.955 388.5C884.379 392.197 889.303 397.515 892.727 404.455C896.152 411.364 897.864 419.636 897.864 429.273C897.864 438.97 896.136 447.318 892.682 454.318C889.227 461.288 884.197 466.652 877.591 470.409C870.985 474.136 862.955 476 853.5 476ZM836.045 466H852.773C860.47 466 866.848 464.515 871.909 461.545C876.97 458.576 880.742 454.348 883.227 448.864C885.712 443.379 886.955 436.848 886.955 429.273C886.955 421.758 885.727 415.288 883.273 409.864C880.818 404.409 877.152 400.227 872.273 397.318C867.394 394.379 861.318 392.909 854.045 392.909H836.045V466ZM916.773 476V382.909H972.955V392.909H928.045V424.364H970.045V434.364H928.045V466H973.682V476H916.773ZM993.273 476V382.909H1024.73C1032 382.909 1037.97 384.152 1042.64 386.636C1047.3 389.091 1050.76 392.47 1053 396.773C1055.24 401.076 1056.36 405.97 1056.36 411.455C1056.36 416.939 1055.24 421.803 1053 426.045C1050.76 430.288 1047.32 433.621 1042.68 436.045C1038.05 438.439 1032.12 439.636 1024.91 439.636H999.455V429.455H1024.55C1029.52 429.455 1033.52 428.727 1036.55 427.273C1039.61 425.818 1041.82 423.758 1043.18 421.091C1044.58 418.394 1045.27 415.182 1045.27 411.455C1045.27 407.727 1044.58 404.47 1043.18 401.682C1041.79 398.894 1039.56 396.742 1036.5 395.227C1033.44 393.682 1029.39 392.909 1024.36 392.909H1004.55V476H993.273ZM1037.09 434.182L1060 476H1046.91L1024.36 434.182H1037.09ZM1148.97 382.909V476H1138.06L1087.33 402.909H1086.42V476H1075.15V382.909H1086.06L1136.97 456.182H1137.88V382.909H1148.97ZM265.273 537.909H278.727L310.364 615.182H311.455L343.091 537.909H356.545V631H346V560.273H345.091L316 631H305.818L276.727 560.273H275.818V631H265.273V537.909ZM379.148 631V537.909H435.33V547.909H390.42V579.364H432.42V589.364H390.42V621H436.057V631H379.148ZM484.375 631H455.648V537.909H485.648C494.678 537.909 502.405 539.773 508.83 543.5C515.254 547.197 520.178 552.515 523.602 559.455C527.027 566.364 528.739 574.636 528.739 584.273C528.739 593.97 527.011 602.318 523.557 609.318C520.102 616.288 515.072 621.652 508.466 625.409C501.86 629.136 493.83 631 484.375 631ZM466.92 621H483.648C491.345 621 497.723 619.515 502.784 616.545C507.845 613.576 511.617 609.348 514.102 603.864C516.587 598.379 517.83 591.848 517.83 584.273C517.83 576.758 516.602 570.288 514.148 564.864C511.693 559.409 508.027 555.227 503.148 552.318C498.269 549.379 492.193 547.909 484.92 547.909H466.92V621ZM558.92 537.909V631H547.648V537.909H558.92ZM585.341 631H573.523L607.705 537.909H619.341L653.523 631H641.705L613.886 552.636H613.159L585.341 631ZM589.705 594.636H637.341V604.636H589.705V594.636Z" fill="black"/>
<path d="M335.318 842.818C335.114 841.091 334.284 839.75 332.83 838.795C331.375 837.841 329.591 837.364 327.477 837.364C325.932 837.364 324.58 837.614 323.42 838.114C322.273 838.614 321.375 839.301 320.727 840.176C320.091 841.051 319.773 842.045 319.773 843.159C319.773 844.091 319.994 844.892 320.438 845.562C320.892 846.222 321.472 846.773 322.176 847.216C322.881 847.648 323.619 848.006 324.392 848.29C325.165 848.562 325.875 848.784 326.523 848.955L330.068 849.909C330.977 850.148 331.989 850.477 333.102 850.898C334.227 851.318 335.301 851.892 336.324 852.619C337.358 853.335 338.21 854.256 338.881 855.381C339.551 856.506 339.886 857.886 339.886 859.523C339.886 861.409 339.392 863.114 338.403 864.636C337.426 866.159 335.994 867.369 334.108 868.267C332.233 869.165 329.955 869.614 327.273 869.614C324.773 869.614 322.608 869.21 320.778 868.403C318.96 867.597 317.528 866.472 316.483 865.028C315.449 863.585 314.864 861.909 314.727 860H319.091C319.205 861.318 319.648 862.409 320.42 863.273C321.205 864.125 322.193 864.761 323.386 865.182C324.591 865.591 325.886 865.795 327.273 865.795C328.886 865.795 330.335 865.534 331.619 865.011C332.903 864.477 333.92 863.739 334.67 862.795C335.42 861.841 335.795 860.727 335.795 859.455C335.795 858.295 335.472 857.352 334.824 856.625C334.176 855.898 333.324 855.307 332.267 854.852C331.21 854.398 330.068 854 328.841 853.659L324.545 852.432C321.818 851.648 319.659 850.528 318.068 849.074C316.477 847.619 315.682 845.716 315.682 843.364C315.682 841.409 316.21 839.705 317.267 838.25C318.335 836.784 319.767 835.648 321.562 834.841C323.369 834.023 325.386 833.614 327.614 833.614C329.864 833.614 331.864 834.017 333.614 834.824C335.364 835.619 336.75 836.71 337.773 838.097C338.807 839.483 339.352 841.057 339.409 842.818H335.318ZM344.928 837.841V834.091H371.109V837.841H360.132V869H355.905V837.841H344.928ZM374.987 869H370.555L383.374 834.091H387.737L400.555 869H396.124L385.692 839.614H385.419L374.987 869ZM376.624 855.364H394.487V859.114H376.624V855.364ZM405.993 869V834.091H417.788C420.516 834.091 422.754 834.557 424.504 835.489C426.254 836.409 427.55 837.676 428.391 839.29C429.232 840.903 429.652 842.739 429.652 844.795C429.652 846.852 429.232 848.676 428.391 850.267C427.55 851.858 426.26 853.108 424.521 854.017C422.783 854.915 420.561 855.364 417.857 855.364H408.311V851.545H417.72C419.584 851.545 421.084 851.273 422.22 850.727C423.368 850.182 424.197 849.409 424.709 848.409C425.232 847.398 425.493 846.193 425.493 844.795C425.493 843.398 425.232 842.176 424.709 841.131C424.186 840.085 423.351 839.278 422.203 838.71C421.055 838.131 419.538 837.841 417.652 837.841H410.22V869H405.993ZM422.425 853.318L431.016 869H426.107L417.652 853.318H422.425ZM434.787 837.841V834.091H460.969V837.841H449.991V869H445.764V837.841H434.787Z" fill="black"/>
<rect x="292.5" y="808.5" width="189" height="87" stroke="black"/>
</svg>
